<mxfile host="Electron" modified="2023-06-11T17:32:26.268Z" agent="Mozilla/5.0 (Windows NT 10.0; Win64; x64) AppleWebKit/537.36 (KHTML, like Gecko) draw.io/21.3.7 Chrome/112.0.5615.204 Electron/24.5.0 Safari/537.36" etag="XPUNkFhQ6x4mKkIjrqtJ" version="21.3.7" type="device">
  <diagram name="Page-1" id="jW6muOmdcl3k9p891wgI">
    <mxGraphModel dx="698" dy="613" grid="1" gridSize="10" guides="1" tooltips="1" connect="1" arrows="1" fold="1" page="1" pageScale="1" pageWidth="827" pageHeight="1169" math="0" shadow="0">
      <root>
        <mxCell id="0" />
        <mxCell id="1" parent="0" />
        <mxCell id="k5ynebyFZuh9Hv9d2iiR-32" style="edgeStyle=orthogonalEdgeStyle;rounded=0;orthogonalLoop=1;jettySize=auto;html=1;exitX=1;exitY=0.3333333333333333;exitDx=0;exitDy=0;exitPerimeter=0;entryX=0;entryY=0.5;entryDx=0;entryDy=0;" edge="1" parent="1" source="k5ynebyFZuh9Hv9d2iiR-1" target="k5ynebyFZuh9Hv9d2iiR-9">
          <mxGeometry relative="1" as="geometry" />
        </mxCell>
        <mxCell id="k5ynebyFZuh9Hv9d2iiR-33" style="edgeStyle=orthogonalEdgeStyle;rounded=0;orthogonalLoop=1;jettySize=auto;html=1;exitX=1;exitY=0.3333333333333333;exitDx=0;exitDy=0;exitPerimeter=0;entryX=0;entryY=0.5;entryDx=0;entryDy=0;" edge="1" parent="1" source="k5ynebyFZuh9Hv9d2iiR-1" target="k5ynebyFZuh9Hv9d2iiR-2">
          <mxGeometry relative="1" as="geometry">
            <Array as="points">
              <mxPoint x="140" y="270" />
              <mxPoint x="140" y="135" />
            </Array>
          </mxGeometry>
        </mxCell>
        <mxCell id="k5ynebyFZuh9Hv9d2iiR-34" style="edgeStyle=orthogonalEdgeStyle;rounded=0;orthogonalLoop=1;jettySize=auto;html=1;exitX=0.5;exitY=0;exitDx=0;exitDy=0;exitPerimeter=0;" edge="1" parent="1" source="k5ynebyFZuh9Hv9d2iiR-1" target="k5ynebyFZuh9Hv9d2iiR-5">
          <mxGeometry relative="1" as="geometry">
            <Array as="points">
              <mxPoint x="65" y="270" />
              <mxPoint x="143" y="270" />
              <mxPoint x="143" y="290" />
            </Array>
          </mxGeometry>
        </mxCell>
        <mxCell id="k5ynebyFZuh9Hv9d2iiR-1" value="Joueurs" style="shape=umlActor;verticalLabelPosition=bottom;verticalAlign=top;html=1;" vertex="1" parent="1">
          <mxGeometry x="50" y="250" width="30" height="60" as="geometry" />
        </mxCell>
        <mxCell id="k5ynebyFZuh9Hv9d2iiR-17" style="edgeStyle=orthogonalEdgeStyle;rounded=0;orthogonalLoop=1;jettySize=auto;html=1;exitX=1;exitY=0.5;exitDx=0;exitDy=0;entryX=0;entryY=0.5;entryDx=0;entryDy=0;" edge="1" parent="1" source="k5ynebyFZuh9Hv9d2iiR-2" target="k5ynebyFZuh9Hv9d2iiR-6">
          <mxGeometry relative="1" as="geometry" />
        </mxCell>
        <mxCell id="k5ynebyFZuh9Hv9d2iiR-2" value="Previous position" style="ellipse;whiteSpace=wrap;html=1;" vertex="1" parent="1">
          <mxGeometry x="200" y="110" width="110" height="50" as="geometry" />
        </mxCell>
        <mxCell id="k5ynebyFZuh9Hv9d2iiR-3" value="Jeu" style="shape=umlFrame;whiteSpace=wrap;html=1;pointerEvents=0;" vertex="1" parent="1">
          <mxGeometry x="130" y="60" width="540" height="580" as="geometry" />
        </mxCell>
        <mxCell id="k5ynebyFZuh9Hv9d2iiR-4" value="Proposition" style="ellipse;whiteSpace=wrap;html=1;" vertex="1" parent="1">
          <mxGeometry x="205" y="200" width="100" height="40" as="geometry" />
        </mxCell>
        <mxCell id="k5ynebyFZuh9Hv9d2iiR-5" value="Fin proposition" style="ellipse;whiteSpace=wrap;html=1;" vertex="1" parent="1">
          <mxGeometry x="205" y="270" width="100" height="40" as="geometry" />
        </mxCell>
        <mxCell id="k5ynebyFZuh9Hv9d2iiR-16" style="edgeStyle=orthogonalEdgeStyle;rounded=0;orthogonalLoop=1;jettySize=auto;html=1;exitX=0.5;exitY=1;exitDx=0;exitDy=0;entryX=1;entryY=0.5;entryDx=0;entryDy=0;" edge="1" parent="1" source="k5ynebyFZuh9Hv9d2iiR-6" target="k5ynebyFZuh9Hv9d2iiR-5">
          <mxGeometry relative="1" as="geometry">
            <Array as="points">
              <mxPoint x="520" y="290" />
            </Array>
          </mxGeometry>
        </mxCell>
        <mxCell id="k5ynebyFZuh9Hv9d2iiR-6" value="Chronomètre" style="ellipse;whiteSpace=wrap;html=1;" vertex="1" parent="1">
          <mxGeometry x="470" y="115" width="100" height="40" as="geometry" />
        </mxCell>
        <mxCell id="k5ynebyFZuh9Hv9d2iiR-8" value="Ranger propositions" style="ellipse;whiteSpace=wrap;html=1;" vertex="1" parent="1">
          <mxGeometry x="205" y="330" width="100" height="40" as="geometry" />
        </mxCell>
        <mxCell id="k5ynebyFZuh9Hv9d2iiR-9" value="Déplacement" style="ellipse;whiteSpace=wrap;html=1;" vertex="1" parent="1">
          <mxGeometry x="205" y="410" width="100" height="40" as="geometry" />
        </mxCell>
        <mxCell id="k5ynebyFZuh9Hv9d2iiR-30" style="edgeStyle=orthogonalEdgeStyle;rounded=0;orthogonalLoop=1;jettySize=auto;html=1;exitX=0.5;exitY=1;exitDx=0;exitDy=0;" edge="1" parent="1" source="k5ynebyFZuh9Hv9d2iiR-10" target="k5ynebyFZuh9Hv9d2iiR-12">
          <mxGeometry relative="1" as="geometry" />
        </mxCell>
        <mxCell id="k5ynebyFZuh9Hv9d2iiR-10" value="Réussite" style="ellipse;whiteSpace=wrap;html=1;" vertex="1" parent="1">
          <mxGeometry x="205" y="490" width="100" height="40" as="geometry" />
        </mxCell>
        <mxCell id="k5ynebyFZuh9Hv9d2iiR-11" value="Échec" style="ellipse;whiteSpace=wrap;html=1;" vertex="1" parent="1">
          <mxGeometry x="370" y="490" width="100" height="40" as="geometry" />
        </mxCell>
        <mxCell id="k5ynebyFZuh9Hv9d2iiR-31" style="edgeStyle=orthogonalEdgeStyle;rounded=0;orthogonalLoop=1;jettySize=auto;html=1;exitX=0;exitY=0.5;exitDx=0;exitDy=0;" edge="1" parent="1" source="k5ynebyFZuh9Hv9d2iiR-12" target="k5ynebyFZuh9Hv9d2iiR-1">
          <mxGeometry relative="1" as="geometry" />
        </mxCell>
        <mxCell id="k5ynebyFZuh9Hv9d2iiR-12" value="Victoire" style="ellipse;whiteSpace=wrap;html=1;" vertex="1" parent="1">
          <mxGeometry x="205" y="570" width="100" height="40" as="geometry" />
        </mxCell>
        <mxCell id="k5ynebyFZuh9Hv9d2iiR-18" style="edgeStyle=orthogonalEdgeStyle;rounded=0;orthogonalLoop=1;jettySize=auto;html=1;exitX=0.5;exitY=1;exitDx=0;exitDy=0;entryX=0.5;entryY=0;entryDx=0;entryDy=0;" edge="1" parent="1" source="k5ynebyFZuh9Hv9d2iiR-13" target="k5ynebyFZuh9Hv9d2iiR-2">
          <mxGeometry relative="1" as="geometry">
            <Array as="points">
              <mxPoint x="400" y="625" />
              <mxPoint x="650" y="625" />
              <mxPoint x="650" y="80" />
              <mxPoint x="255" y="80" />
            </Array>
          </mxGeometry>
        </mxCell>
        <mxCell id="k5ynebyFZuh9Hv9d2iiR-13" value="Fin de la proposition" style="ellipse;whiteSpace=wrap;html=1;" vertex="1" parent="1">
          <mxGeometry x="350" y="565" width="100" height="40" as="geometry" />
        </mxCell>
        <mxCell id="k5ynebyFZuh9Hv9d2iiR-22" style="edgeStyle=orthogonalEdgeStyle;rounded=0;orthogonalLoop=1;jettySize=auto;html=1;exitX=1;exitY=0.5;exitDx=0;exitDy=0;entryX=1;entryY=0.5;entryDx=0;entryDy=0;" edge="1" parent="1" source="k5ynebyFZuh9Hv9d2iiR-14" target="k5ynebyFZuh9Hv9d2iiR-15">
          <mxGeometry relative="1" as="geometry" />
        </mxCell>
        <mxCell id="k5ynebyFZuh9Hv9d2iiR-14" value="Continuation de la proposition" style="ellipse;whiteSpace=wrap;html=1;" vertex="1" parent="1">
          <mxGeometry x="480" y="565" width="130" height="40" as="geometry" />
        </mxCell>
        <mxCell id="k5ynebyFZuh9Hv9d2iiR-20" style="edgeStyle=orthogonalEdgeStyle;rounded=0;orthogonalLoop=1;jettySize=auto;html=1;exitX=0.5;exitY=0;exitDx=0;exitDy=0;entryX=1;entryY=0;entryDx=0;entryDy=0;" edge="1" parent="1" source="k5ynebyFZuh9Hv9d2iiR-15" target="k5ynebyFZuh9Hv9d2iiR-9">
          <mxGeometry relative="1" as="geometry">
            <Array as="points">
              <mxPoint x="420" y="390" />
              <mxPoint x="290" y="390" />
            </Array>
          </mxGeometry>
        </mxCell>
        <mxCell id="k5ynebyFZuh9Hv9d2iiR-15" value="Joueur + 1" style="ellipse;whiteSpace=wrap;html=1;" vertex="1" parent="1">
          <mxGeometry x="370" y="410" width="100" height="40" as="geometry" />
        </mxCell>
        <mxCell id="k5ynebyFZuh9Hv9d2iiR-24" value="Use" style="endArrow=open;endSize=12;dashed=1;html=1;rounded=0;exitX=0.5;exitY=1;exitDx=0;exitDy=0;entryX=0.5;entryY=0;entryDx=0;entryDy=0;" edge="1" parent="1" source="k5ynebyFZuh9Hv9d2iiR-2" target="k5ynebyFZuh9Hv9d2iiR-4">
          <mxGeometry width="160" relative="1" as="geometry">
            <mxPoint x="280" y="370" as="sourcePoint" />
            <mxPoint x="440" y="370" as="targetPoint" />
          </mxGeometry>
        </mxCell>
        <mxCell id="k5ynebyFZuh9Hv9d2iiR-25" value="Use" style="endArrow=open;endSize=12;dashed=1;html=1;rounded=0;exitX=0.5;exitY=1;exitDx=0;exitDy=0;entryX=0.5;entryY=0;entryDx=0;entryDy=0;" edge="1" parent="1" source="k5ynebyFZuh9Hv9d2iiR-4" target="k5ynebyFZuh9Hv9d2iiR-5">
          <mxGeometry width="160" relative="1" as="geometry">
            <mxPoint x="265" y="170" as="sourcePoint" />
            <mxPoint x="265" y="210" as="targetPoint" />
            <Array as="points" />
          </mxGeometry>
        </mxCell>
        <mxCell id="k5ynebyFZuh9Hv9d2iiR-26" value="Use" style="endArrow=open;endSize=12;dashed=1;html=1;rounded=0;exitX=0.5;exitY=1;exitDx=0;exitDy=0;" edge="1" parent="1" source="k5ynebyFZuh9Hv9d2iiR-5" target="k5ynebyFZuh9Hv9d2iiR-8">
          <mxGeometry width="160" relative="1" as="geometry">
            <mxPoint x="275" y="180" as="sourcePoint" />
            <mxPoint x="275" y="220" as="targetPoint" />
          </mxGeometry>
        </mxCell>
        <mxCell id="k5ynebyFZuh9Hv9d2iiR-27" value="Use" style="endArrow=open;endSize=12;dashed=1;html=1;rounded=0;exitX=0.5;exitY=1;exitDx=0;exitDy=0;entryX=0.5;entryY=0;entryDx=0;entryDy=0;" edge="1" parent="1" source="k5ynebyFZuh9Hv9d2iiR-8" target="k5ynebyFZuh9Hv9d2iiR-9">
          <mxGeometry width="160" relative="1" as="geometry">
            <mxPoint x="310" y="370" as="sourcePoint" />
            <mxPoint x="470" y="370" as="targetPoint" />
          </mxGeometry>
        </mxCell>
        <mxCell id="k5ynebyFZuh9Hv9d2iiR-28" value="Use" style="endArrow=open;endSize=12;dashed=1;html=1;rounded=0;exitX=0.5;exitY=1;exitDx=0;exitDy=0;entryX=0.5;entryY=0;entryDx=0;entryDy=0;" edge="1" parent="1" source="k5ynebyFZuh9Hv9d2iiR-9" target="k5ynebyFZuh9Hv9d2iiR-10">
          <mxGeometry width="160" relative="1" as="geometry">
            <mxPoint x="310" y="370" as="sourcePoint" />
            <mxPoint x="470" y="370" as="targetPoint" />
          </mxGeometry>
        </mxCell>
        <mxCell id="k5ynebyFZuh9Hv9d2iiR-29" value="Use" style="endArrow=open;endSize=12;dashed=1;html=1;rounded=0;exitX=1;exitY=1;exitDx=0;exitDy=0;entryX=0.5;entryY=0;entryDx=0;entryDy=0;" edge="1" parent="1" source="k5ynebyFZuh9Hv9d2iiR-9" target="k5ynebyFZuh9Hv9d2iiR-11">
          <mxGeometry width="160" relative="1" as="geometry">
            <mxPoint x="310" y="370" as="sourcePoint" />
            <mxPoint x="470" y="370" as="targetPoint" />
          </mxGeometry>
        </mxCell>
        <mxCell id="k5ynebyFZuh9Hv9d2iiR-35" value="Use" style="endArrow=open;endSize=12;dashed=1;html=1;rounded=0;exitX=0.5;exitY=1;exitDx=0;exitDy=0;entryX=0.5;entryY=0;entryDx=0;entryDy=0;" edge="1" parent="1" source="k5ynebyFZuh9Hv9d2iiR-11" target="k5ynebyFZuh9Hv9d2iiR-13">
          <mxGeometry width="160" relative="1" as="geometry">
            <mxPoint x="310" y="370" as="sourcePoint" />
            <mxPoint x="470" y="370" as="targetPoint" />
          </mxGeometry>
        </mxCell>
        <mxCell id="k5ynebyFZuh9Hv9d2iiR-36" value="Use" style="endArrow=open;endSize=12;dashed=1;html=1;rounded=0;exitX=1;exitY=1;exitDx=0;exitDy=0;entryX=0;entryY=0;entryDx=0;entryDy=0;" edge="1" parent="1" source="k5ynebyFZuh9Hv9d2iiR-11" target="k5ynebyFZuh9Hv9d2iiR-14">
          <mxGeometry width="160" relative="1" as="geometry">
            <mxPoint x="310" y="370" as="sourcePoint" />
            <mxPoint x="470" y="370" as="targetPoint" />
          </mxGeometry>
        </mxCell>
      </root>
    </mxGraphModel>
  </diagram>
</mxfile>
